<svg width="15" height="16" viewBox="0 0 15 16" fill="none" xmlns="http://www.w3.org/2000/svg">
<g clip-path="url(#clip0_153_2)">
<path fill-rule="evenodd" clip-rule="evenodd" d="M11.969 1H3.082V2.031L-0.0078125 2.031V6.867C-0.0078125 8.736 2.078 10.274 4.125 10.434C4.797 11.154 5.979 11.677 7.031 11.9V13.164C6.025 13.473 4.228 14.199 4.125 14.99H11.0291C10.9251 14.199 8.945 13.472 7.937 13.164V11.9C8.993 11.677 10.228 11.154 10.901 10.434C12.947 10.274 14.941 8.736 14.941 6.867V2.031H11.969V1ZM0.941 2.94739H3.01V7.113C3.01 7.935 3.222 8.717 3.595 9.421C2.047 8.928 0.941 7.658 0.941 6.172V2.94739ZM9.0452 8.028L7.50083 7.177L5.9548 8.028L6.25 6.228L5 4.954L6.72698 4.691L7.50083 3.055L8.27302 4.691L10 4.954L8.75083 6.228L9.0452 8.028ZM11.34 9.554C11.715 8.818 11.93 8.004 11.93 7.143V2.97424H14.004V6.16C14.004 7.713 12.893 9.039 11.34 9.554Z" fill="#434343"/>
</g>
<defs>
<clipPath id="clip0_153_2">
<rect width="15" height="16" fill="white"/>
</clipPath>
</defs>
</svg>
